<mxfile host="app.diagrams.net" modified="2024-03-03T17:27:51.183Z" agent="Mozilla/5.0 (Windows NT 10.0; Win64; x64) AppleWebKit/537.36 (KHTML, like Gecko) Chrome/121.0.0.0 Safari/537.36" etag="fz7zvc55r1bCgYUtBBFO" version="23.1.7" type="device">
  <diagram name="Страница — 1" id="Cy8QLNytjA-2ubOcpx3c">
    <mxGraphModel dx="4144" dy="2088" grid="1" gridSize="10" guides="1" tooltips="1" connect="1" arrows="1" fold="1" page="1" pageScale="1" pageWidth="3300" pageHeight="4681" math="0" shadow="0">
      <root>
        <mxCell id="0" />
        <mxCell id="1" parent="0" />
        <mxCell id="tvEzzkV83GTAkukXnAIm-289" value="Авторизация" style="rounded=1;whiteSpace=wrap;html=1;" parent="1" vertex="1">
          <mxGeometry x="1240" y="330" width="90" height="40" as="geometry" />
        </mxCell>
        <mxCell id="tvEzzkV83GTAkukXnAIm-290" style="edgeStyle=orthogonalEdgeStyle;rounded=0;orthogonalLoop=1;jettySize=auto;html=1;dashed=1;endArrow=none;endFill=0;" parent="1" source="tvEzzkV83GTAkukXnAIm-291" target="tvEzzkV83GTAkukXnAIm-293" edge="1">
          <mxGeometry relative="1" as="geometry" />
        </mxCell>
        <mxCell id="tvEzzkV83GTAkukXnAIm-291" value="Кладовщик" style="shape=umlActor;verticalLabelPosition=bottom;verticalAlign=top;html=1;outlineConnect=0;" parent="1" vertex="1">
          <mxGeometry x="1400" y="130" width="30" height="60" as="geometry" />
        </mxCell>
        <mxCell id="tvEzzkV83GTAkukXnAIm-292" style="edgeStyle=orthogonalEdgeStyle;rounded=0;orthogonalLoop=1;jettySize=auto;html=1;entryX=-0.007;entryY=0.1;entryDx=0;entryDy=0;exitX=1;exitY=0.1;exitDx=0;exitDy=0;exitPerimeter=0;entryPerimeter=0;" parent="1" source="tvEzzkV83GTAkukXnAIm-293" target="tvEzzkV83GTAkukXnAIm-296" edge="1">
          <mxGeometry relative="1" as="geometry" />
        </mxCell>
        <mxCell id="tvEzzkV83GTAkukXnAIm-293" value="" style="rounded=0;whiteSpace=wrap;html=1;" parent="1" vertex="1">
          <mxGeometry x="1410" y="250" width="10" height="200" as="geometry" />
        </mxCell>
        <mxCell id="tvEzzkV83GTAkukXnAIm-294" style="edgeStyle=orthogonalEdgeStyle;rounded=0;orthogonalLoop=1;jettySize=auto;html=1;entryX=0.5;entryY=0;entryDx=0;entryDy=0;dashed=1;endArrow=none;endFill=0;" parent="1" source="tvEzzkV83GTAkukXnAIm-295" target="tvEzzkV83GTAkukXnAIm-296" edge="1">
          <mxGeometry relative="1" as="geometry" />
        </mxCell>
        <mxCell id="tvEzzkV83GTAkukXnAIm-295" value="Клиент" style="rounded=1;whiteSpace=wrap;html=1;" parent="1" vertex="1">
          <mxGeometry x="1570" y="140" width="90" height="40" as="geometry" />
        </mxCell>
        <mxCell id="tvEzzkV83GTAkukXnAIm-296" value="" style="rounded=0;whiteSpace=wrap;html=1;" parent="1" vertex="1">
          <mxGeometry x="1610" y="250" width="10" height="200" as="geometry" />
        </mxCell>
        <mxCell id="tvEzzkV83GTAkukXnAIm-297" value="Сервер" style="rounded=1;whiteSpace=wrap;html=1;" parent="1" vertex="1">
          <mxGeometry x="1770" y="140" width="90" height="40" as="geometry" />
        </mxCell>
        <mxCell id="tvEzzkV83GTAkukXnAIm-298" value="" style="rounded=0;whiteSpace=wrap;html=1;" parent="1" vertex="1">
          <mxGeometry x="1810" y="250" width="10" height="200" as="geometry" />
        </mxCell>
        <mxCell id="tvEzzkV83GTAkukXnAIm-299" value="БД" style="rounded=1;whiteSpace=wrap;html=1;" parent="1" vertex="1">
          <mxGeometry x="1970" y="140" width="90" height="40" as="geometry" />
        </mxCell>
        <mxCell id="tvEzzkV83GTAkukXnAIm-300" style="edgeStyle=orthogonalEdgeStyle;rounded=0;orthogonalLoop=1;jettySize=auto;html=1;exitX=0;exitY=0.75;exitDx=0;exitDy=0;entryX=0.995;entryY=0.851;entryDx=0;entryDy=0;entryPerimeter=0;dashed=1;endArrow=open;endFill=0;" parent="1" target="tvEzzkV83GTAkukXnAIm-298" edge="1">
          <mxGeometry relative="1" as="geometry">
            <mxPoint x="2014.0000000000005" y="420.03999999999996" as="sourcePoint" />
            <mxPoint x="1824" y="420.84000000000015" as="targetPoint" />
            <Array as="points">
              <mxPoint x="1914" y="420" />
            </Array>
          </mxGeometry>
        </mxCell>
        <mxCell id="tvEzzkV83GTAkukXnAIm-301" value="" style="rounded=0;whiteSpace=wrap;html=1;" parent="1" vertex="1">
          <mxGeometry x="2010" y="320" width="10" height="120" as="geometry" />
        </mxCell>
        <mxCell id="tvEzzkV83GTAkukXnAIm-302" style="edgeStyle=orthogonalEdgeStyle;rounded=0;orthogonalLoop=1;jettySize=auto;html=1;entryX=0.5;entryY=0;entryDx=0;entryDy=0;dashed=1;endArrow=none;endFill=0;" parent="1" edge="1">
          <mxGeometry relative="1" as="geometry">
            <mxPoint x="1814.62" y="180" as="sourcePoint" />
            <mxPoint x="1814.62" y="250" as="targetPoint" />
          </mxGeometry>
        </mxCell>
        <mxCell id="tvEzzkV83GTAkukXnAIm-303" style="edgeStyle=orthogonalEdgeStyle;rounded=0;orthogonalLoop=1;jettySize=auto;html=1;dashed=1;endArrow=none;endFill=0;entryX=0.5;entryY=0;entryDx=0;entryDy=0;" parent="1" target="tvEzzkV83GTAkukXnAIm-301" edge="1">
          <mxGeometry relative="1" as="geometry">
            <mxPoint x="2014.62" y="180" as="sourcePoint" />
            <mxPoint x="2015" y="300" as="targetPoint" />
          </mxGeometry>
        </mxCell>
        <mxCell id="tvEzzkV83GTAkukXnAIm-304" style="edgeStyle=orthogonalEdgeStyle;rounded=0;orthogonalLoop=1;jettySize=auto;html=1;entryX=-0.007;entryY=0.1;entryDx=0;entryDy=0;exitX=1;exitY=0.1;exitDx=0;exitDy=0;exitPerimeter=0;entryPerimeter=0;" parent="1" edge="1">
          <mxGeometry relative="1" as="geometry">
            <mxPoint x="1620" y="289.6300000000001" as="sourcePoint" />
            <mxPoint x="1810" y="289.6300000000001" as="targetPoint" />
          </mxGeometry>
        </mxCell>
        <mxCell id="tvEzzkV83GTAkukXnAIm-305" style="edgeStyle=orthogonalEdgeStyle;rounded=0;orthogonalLoop=1;jettySize=auto;html=1;entryX=-0.007;entryY=0.1;entryDx=0;entryDy=0;exitX=1;exitY=0.1;exitDx=0;exitDy=0;exitPerimeter=0;entryPerimeter=0;" parent="1" edge="1">
          <mxGeometry relative="1" as="geometry">
            <mxPoint x="1820" y="370" as="sourcePoint" />
            <mxPoint x="2010" y="370" as="targetPoint" />
          </mxGeometry>
        </mxCell>
        <mxCell id="tvEzzkV83GTAkukXnAIm-306" style="edgeStyle=orthogonalEdgeStyle;rounded=0;orthogonalLoop=1;jettySize=auto;html=1;exitX=1;exitY=0.1;exitDx=0;exitDy=0;exitPerimeter=0;" parent="1" edge="1">
          <mxGeometry relative="1" as="geometry">
            <mxPoint x="1820" y="289.6300000000001" as="sourcePoint" />
            <mxPoint x="1820" y="310" as="targetPoint" />
            <Array as="points">
              <mxPoint x="1910" y="290" />
              <mxPoint x="1910" y="310" />
              <mxPoint x="1820" y="310" />
            </Array>
          </mxGeometry>
        </mxCell>
        <mxCell id="tvEzzkV83GTAkukXnAIm-307" value="" style="rounded=0;whiteSpace=wrap;html=1;" parent="1" vertex="1">
          <mxGeometry x="2014" y="360" width="16" height="60" as="geometry" />
        </mxCell>
        <mxCell id="tvEzzkV83GTAkukXnAIm-308" style="edgeStyle=orthogonalEdgeStyle;rounded=0;orthogonalLoop=1;jettySize=auto;html=1;exitX=1;exitY=0.1;exitDx=0;exitDy=0;exitPerimeter=0;" parent="1" edge="1">
          <mxGeometry relative="1" as="geometry">
            <mxPoint x="2030" y="369.8499999999999" as="sourcePoint" />
            <mxPoint x="2030" y="390.22" as="targetPoint" />
            <Array as="points">
              <mxPoint x="2120" y="370.22" />
              <mxPoint x="2120" y="390.22" />
              <mxPoint x="2030" y="390.22" />
            </Array>
          </mxGeometry>
        </mxCell>
        <mxCell id="tvEzzkV83GTAkukXnAIm-309" style="edgeStyle=orthogonalEdgeStyle;rounded=0;orthogonalLoop=1;jettySize=auto;html=1;exitX=0;exitY=0.75;exitDx=0;exitDy=0;entryX=0.992;entryY=0.899;entryDx=0;entryDy=0;entryPerimeter=0;dashed=1;endArrow=open;endFill=0;" parent="1" target="tvEzzkV83GTAkukXnAIm-296" edge="1">
          <mxGeometry relative="1" as="geometry">
            <mxPoint x="1810" y="430" as="sourcePoint" />
            <mxPoint x="1620" y="431" as="targetPoint" />
          </mxGeometry>
        </mxCell>
        <mxCell id="tvEzzkV83GTAkukXnAIm-310" style="edgeStyle=orthogonalEdgeStyle;rounded=0;orthogonalLoop=1;jettySize=auto;html=1;exitX=0;exitY=0.75;exitDx=0;exitDy=0;entryX=1.034;entryY=0.993;entryDx=0;entryDy=0;entryPerimeter=0;dashed=1;endArrow=open;endFill=0;" parent="1" target="tvEzzkV83GTAkukXnAIm-293" edge="1">
          <mxGeometry relative="1" as="geometry">
            <mxPoint x="1611" y="448.52" as="sourcePoint" />
            <mxPoint x="1421" y="449.52" as="targetPoint" />
          </mxGeometry>
        </mxCell>
        <mxCell id="tvEzzkV83GTAkukXnAIm-311" value="Заполнение формы" style="text;html=1;strokeColor=none;fillColor=none;align=center;verticalAlign=middle;whiteSpace=wrap;rounded=0;" parent="1" vertex="1">
          <mxGeometry x="1450" y="240" width="130" height="30" as="geometry" />
        </mxCell>
        <mxCell id="tvEzzkV83GTAkukXnAIm-312" value="Проверка корректности введённых данных" style="text;html=1;strokeColor=none;fillColor=none;align=center;verticalAlign=middle;whiteSpace=wrap;rounded=0;" parent="1" vertex="1">
          <mxGeometry x="1850" y="250" width="140" height="30" as="geometry" />
        </mxCell>
        <mxCell id="tvEzzkV83GTAkukXnAIm-313" value="Поиск пользователя в базе" style="text;html=1;strokeColor=none;fillColor=none;align=center;verticalAlign=middle;whiteSpace=wrap;rounded=0;" parent="1" vertex="1">
          <mxGeometry x="1855" y="335" width="130" height="30" as="geometry" />
        </mxCell>
        <mxCell id="tvEzzkV83GTAkukXnAIm-314" value="Выборка из БД" style="text;html=1;strokeColor=none;fillColor=none;align=center;verticalAlign=middle;whiteSpace=wrap;rounded=0;" parent="1" vertex="1">
          <mxGeometry x="2050" y="340" width="130" height="30" as="geometry" />
        </mxCell>
        <mxCell id="tvEzzkV83GTAkukXnAIm-315" value="Найденное совпадение" style="text;html=1;strokeColor=none;fillColor=none;align=center;verticalAlign=middle;whiteSpace=wrap;rounded=0;" parent="1" vertex="1">
          <mxGeometry x="1850" y="390" width="130" height="30" as="geometry" />
        </mxCell>
        <mxCell id="tvEzzkV83GTAkukXnAIm-316" value="Результат" style="text;html=1;strokeColor=none;fillColor=none;align=center;verticalAlign=middle;whiteSpace=wrap;rounded=0;" parent="1" vertex="1">
          <mxGeometry x="1650" y="400" width="130" height="30" as="geometry" />
        </mxCell>
        <mxCell id="tvEzzkV83GTAkukXnAIm-317" value="Отображение главной страницы" style="text;html=1;strokeColor=none;fillColor=none;align=center;verticalAlign=middle;whiteSpace=wrap;rounded=0;" parent="1" vertex="1">
          <mxGeometry x="1450" y="410" width="130" height="30" as="geometry" />
        </mxCell>
        <mxCell id="tvEzzkV83GTAkukXnAIm-318" value="" style="endArrow=none;html=1;rounded=0;" parent="1" edge="1">
          <mxGeometry width="50" height="50" relative="1" as="geometry">
            <mxPoint x="1210" y="490" as="sourcePoint" />
            <mxPoint x="2170" y="490" as="targetPoint" />
          </mxGeometry>
        </mxCell>
        <mxCell id="tvEzzkV83GTAkukXnAIm-319" value="Принять задание" style="rounded=1;whiteSpace=wrap;html=1;" parent="1" vertex="1">
          <mxGeometry x="1240" y="670" width="90" height="40" as="geometry" />
        </mxCell>
        <mxCell id="tvEzzkV83GTAkukXnAIm-320" value="" style="rounded=0;whiteSpace=wrap;html=1;" parent="1" vertex="1">
          <mxGeometry x="1410" y="530" width="10" height="280" as="geometry" />
        </mxCell>
        <mxCell id="tvEzzkV83GTAkukXnAIm-321" style="edgeStyle=orthogonalEdgeStyle;rounded=0;orthogonalLoop=1;jettySize=auto;html=1;entryX=0.5;entryY=0;entryDx=0;entryDy=0;dashed=1;endArrow=none;endFill=0;" parent="1" target="tvEzzkV83GTAkukXnAIm-320" edge="1">
          <mxGeometry relative="1" as="geometry">
            <mxPoint x="1414.83" y="450" as="sourcePoint" />
            <mxPoint x="1414.83" y="520" as="targetPoint" />
          </mxGeometry>
        </mxCell>
        <mxCell id="tvEzzkV83GTAkukXnAIm-322" value="" style="rounded=0;whiteSpace=wrap;html=1;" parent="1" vertex="1">
          <mxGeometry x="1610" y="530" width="10" height="120" as="geometry" />
        </mxCell>
        <mxCell id="tvEzzkV83GTAkukXnAIm-323" style="edgeStyle=orthogonalEdgeStyle;rounded=0;orthogonalLoop=1;jettySize=auto;html=1;entryX=-0.007;entryY=0.1;entryDx=0;entryDy=0;exitX=1;exitY=0.1;exitDx=0;exitDy=0;exitPerimeter=0;entryPerimeter=0;" parent="1" edge="1">
          <mxGeometry relative="1" as="geometry">
            <mxPoint x="1421" y="550" as="sourcePoint" />
            <mxPoint x="1611" y="550" as="targetPoint" />
          </mxGeometry>
        </mxCell>
        <mxCell id="tvEzzkV83GTAkukXnAIm-324" value="Нажатие кнопки &quot;Принять задание&quot;" style="text;html=1;strokeColor=none;fillColor=none;align=center;verticalAlign=middle;whiteSpace=wrap;rounded=0;" parent="1" vertex="1">
          <mxGeometry x="1451" y="520" width="130" height="30" as="geometry" />
        </mxCell>
        <mxCell id="tvEzzkV83GTAkukXnAIm-325" value="" style="rounded=0;whiteSpace=wrap;html=1;" parent="1" vertex="1">
          <mxGeometry x="1810" y="530" width="10" height="120" as="geometry" />
        </mxCell>
        <mxCell id="tvEzzkV83GTAkukXnAIm-326" style="edgeStyle=orthogonalEdgeStyle;rounded=0;orthogonalLoop=1;jettySize=auto;html=1;entryX=-0.007;entryY=0.1;entryDx=0;entryDy=0;exitX=1;exitY=0.1;exitDx=0;exitDy=0;exitPerimeter=0;entryPerimeter=0;" parent="1" edge="1">
          <mxGeometry relative="1" as="geometry">
            <mxPoint x="1620" y="560" as="sourcePoint" />
            <mxPoint x="1810" y="560" as="targetPoint" />
          </mxGeometry>
        </mxCell>
        <mxCell id="tvEzzkV83GTAkukXnAIm-327" value="Запрос для открытие фомы" style="text;html=1;strokeColor=none;fillColor=none;align=center;verticalAlign=middle;whiteSpace=wrap;rounded=0;" parent="1" vertex="1">
          <mxGeometry x="1650" y="530" width="130" height="30" as="geometry" />
        </mxCell>
        <mxCell id="tvEzzkV83GTAkukXnAIm-328" style="edgeStyle=orthogonalEdgeStyle;rounded=0;orthogonalLoop=1;jettySize=auto;html=1;exitX=0;exitY=0.75;exitDx=0;exitDy=0;entryX=0.992;entryY=0.899;entryDx=0;entryDy=0;entryPerimeter=0;dashed=1;endArrow=open;endFill=0;" parent="1" edge="1">
          <mxGeometry relative="1" as="geometry">
            <mxPoint x="1810" y="620" as="sourcePoint" />
            <mxPoint x="1620" y="620" as="targetPoint" />
          </mxGeometry>
        </mxCell>
        <mxCell id="tvEzzkV83GTAkukXnAIm-329" value="Результат" style="text;html=1;strokeColor=none;fillColor=none;align=center;verticalAlign=middle;whiteSpace=wrap;rounded=0;" parent="1" vertex="1">
          <mxGeometry x="1650" y="590" width="130" height="30" as="geometry" />
        </mxCell>
        <mxCell id="tvEzzkV83GTAkukXnAIm-330" value="Отображение заданий" style="text;html=1;strokeColor=none;fillColor=none;align=center;verticalAlign=middle;whiteSpace=wrap;rounded=0;" parent="1" vertex="1">
          <mxGeometry x="1451" y="590" width="130" height="30" as="geometry" />
        </mxCell>
        <mxCell id="tvEzzkV83GTAkukXnAIm-331" style="edgeStyle=orthogonalEdgeStyle;rounded=0;orthogonalLoop=1;jettySize=auto;html=1;exitX=0;exitY=0.75;exitDx=0;exitDy=0;entryX=0.992;entryY=0.899;entryDx=0;entryDy=0;entryPerimeter=0;dashed=1;endArrow=open;endFill=0;" parent="1" edge="1">
          <mxGeometry relative="1" as="geometry">
            <mxPoint x="1611" y="620" as="sourcePoint" />
            <mxPoint x="1421" y="620" as="targetPoint" />
          </mxGeometry>
        </mxCell>
        <mxCell id="tvEzzkV83GTAkukXnAIm-332" style="edgeStyle=orthogonalEdgeStyle;rounded=0;orthogonalLoop=1;jettySize=auto;html=1;entryX=-0.007;entryY=0.1;entryDx=0;entryDy=0;exitX=1;exitY=0.1;exitDx=0;exitDy=0;exitPerimeter=0;entryPerimeter=0;" parent="1" edge="1">
          <mxGeometry relative="1" as="geometry">
            <mxPoint x="1421" y="680" as="sourcePoint" />
            <mxPoint x="1611" y="680" as="targetPoint" />
          </mxGeometry>
        </mxCell>
        <mxCell id="tvEzzkV83GTAkukXnAIm-333" value="Нажатие кнопки &quot;Готово&quot;" style="text;html=1;strokeColor=none;fillColor=none;align=center;verticalAlign=middle;whiteSpace=wrap;rounded=0;" parent="1" vertex="1">
          <mxGeometry x="1451" y="650" width="130" height="30" as="geometry" />
        </mxCell>
        <mxCell id="tvEzzkV83GTAkukXnAIm-334" style="edgeStyle=orthogonalEdgeStyle;rounded=0;orthogonalLoop=1;jettySize=auto;html=1;entryX=-0.007;entryY=0.1;entryDx=0;entryDy=0;exitX=1;exitY=0.1;exitDx=0;exitDy=0;exitPerimeter=0;entryPerimeter=0;" parent="1" edge="1">
          <mxGeometry relative="1" as="geometry">
            <mxPoint x="1620" y="689.22" as="sourcePoint" />
            <mxPoint x="1810" y="689.22" as="targetPoint" />
          </mxGeometry>
        </mxCell>
        <mxCell id="tvEzzkV83GTAkukXnAIm-335" value="Передача данных" style="text;html=1;strokeColor=none;fillColor=none;align=center;verticalAlign=middle;whiteSpace=wrap;rounded=0;" parent="1" vertex="1">
          <mxGeometry x="1650" y="659.22" width="130" height="30" as="geometry" />
        </mxCell>
        <mxCell id="tvEzzkV83GTAkukXnAIm-336" value="" style="rounded=0;whiteSpace=wrap;html=1;" parent="1" vertex="1">
          <mxGeometry x="1810" y="670" width="10" height="140" as="geometry" />
        </mxCell>
        <mxCell id="tvEzzkV83GTAkukXnAIm-337" value="" style="rounded=0;whiteSpace=wrap;html=1;" parent="1" vertex="1">
          <mxGeometry x="2010" y="670" width="10" height="140" as="geometry" />
        </mxCell>
        <mxCell id="tvEzzkV83GTAkukXnAIm-338" style="edgeStyle=orthogonalEdgeStyle;rounded=0;orthogonalLoop=1;jettySize=auto;html=1;entryX=-0.007;entryY=0.1;entryDx=0;entryDy=0;exitX=1;exitY=0.1;exitDx=0;exitDy=0;exitPerimeter=0;entryPerimeter=0;" parent="1" edge="1">
          <mxGeometry relative="1" as="geometry">
            <mxPoint x="1820" y="700" as="sourcePoint" />
            <mxPoint x="2010" y="700" as="targetPoint" />
          </mxGeometry>
        </mxCell>
        <mxCell id="tvEzzkV83GTAkukXnAIm-339" value="Запрос на редактирование" style="text;html=1;strokeColor=none;fillColor=none;align=center;verticalAlign=middle;whiteSpace=wrap;rounded=0;" parent="1" vertex="1">
          <mxGeometry x="1850" y="670" width="130" height="30" as="geometry" />
        </mxCell>
        <mxCell id="tvEzzkV83GTAkukXnAIm-340" value="Сохранение в БД" style="text;html=1;strokeColor=none;fillColor=none;align=center;verticalAlign=middle;whiteSpace=wrap;rounded=0;" parent="1" vertex="1">
          <mxGeometry x="2050" y="695" width="130" height="30" as="geometry" />
        </mxCell>
        <mxCell id="tvEzzkV83GTAkukXnAIm-341" style="edgeStyle=orthogonalEdgeStyle;rounded=0;orthogonalLoop=1;jettySize=auto;html=1;exitX=1;exitY=0.1;exitDx=0;exitDy=0;exitPerimeter=0;" parent="1" edge="1">
          <mxGeometry relative="1" as="geometry">
            <mxPoint x="2030" y="724.8499999999999" as="sourcePoint" />
            <mxPoint x="2030" y="745.22" as="targetPoint" />
            <Array as="points">
              <mxPoint x="2120" y="725.22" />
              <mxPoint x="2120" y="745.22" />
              <mxPoint x="2030" y="745.22" />
            </Array>
          </mxGeometry>
        </mxCell>
        <mxCell id="tvEzzkV83GTAkukXnAIm-342" value="" style="rounded=0;whiteSpace=wrap;html=1;" parent="1" vertex="1">
          <mxGeometry x="2014" y="710" width="16" height="60" as="geometry" />
        </mxCell>
        <mxCell id="tvEzzkV83GTAkukXnAIm-343" value="Результат" style="text;html=1;strokeColor=none;fillColor=none;align=center;verticalAlign=middle;whiteSpace=wrap;rounded=0;" parent="1" vertex="1">
          <mxGeometry x="1850" y="770" width="130" height="30" as="geometry" />
        </mxCell>
        <mxCell id="tvEzzkV83GTAkukXnAIm-344" style="edgeStyle=orthogonalEdgeStyle;rounded=0;orthogonalLoop=1;jettySize=auto;html=1;exitX=0;exitY=0.75;exitDx=0;exitDy=0;entryX=0.992;entryY=0.899;entryDx=0;entryDy=0;entryPerimeter=0;dashed=1;endArrow=open;endFill=0;" parent="1" edge="1">
          <mxGeometry relative="1" as="geometry">
            <mxPoint x="2010" y="800" as="sourcePoint" />
            <mxPoint x="1820" y="800" as="targetPoint" />
          </mxGeometry>
        </mxCell>
        <mxCell id="tvEzzkV83GTAkukXnAIm-345" value="Сообщение об успешном выполнении" style="text;html=1;strokeColor=none;fillColor=none;align=center;verticalAlign=middle;whiteSpace=wrap;rounded=0;" parent="1" vertex="1">
          <mxGeometry x="1650" y="769" width="130" height="30" as="geometry" />
        </mxCell>
        <mxCell id="tvEzzkV83GTAkukXnAIm-346" style="edgeStyle=orthogonalEdgeStyle;rounded=0;orthogonalLoop=1;jettySize=auto;html=1;exitX=0;exitY=0.75;exitDx=0;exitDy=0;entryX=0.992;entryY=0.899;entryDx=0;entryDy=0;entryPerimeter=0;dashed=1;endArrow=open;endFill=0;" parent="1" edge="1">
          <mxGeometry relative="1" as="geometry">
            <mxPoint x="1810" y="799" as="sourcePoint" />
            <mxPoint x="1620" y="799" as="targetPoint" />
          </mxGeometry>
        </mxCell>
        <mxCell id="tvEzzkV83GTAkukXnAIm-347" value="Отображение сообщения" style="text;html=1;strokeColor=none;fillColor=none;align=center;verticalAlign=middle;whiteSpace=wrap;rounded=0;" parent="1" vertex="1">
          <mxGeometry x="1450" y="769" width="130" height="30" as="geometry" />
        </mxCell>
        <mxCell id="tvEzzkV83GTAkukXnAIm-348" style="edgeStyle=orthogonalEdgeStyle;rounded=0;orthogonalLoop=1;jettySize=auto;html=1;exitX=0;exitY=0.75;exitDx=0;exitDy=0;entryX=0.992;entryY=0.899;entryDx=0;entryDy=0;entryPerimeter=0;dashed=1;endArrow=open;endFill=0;" parent="1" edge="1">
          <mxGeometry relative="1" as="geometry">
            <mxPoint x="1610" y="799" as="sourcePoint" />
            <mxPoint x="1420" y="799" as="targetPoint" />
          </mxGeometry>
        </mxCell>
        <mxCell id="tvEzzkV83GTAkukXnAIm-349" value="Сообщить о проблеме" style="rounded=1;whiteSpace=wrap;html=1;" parent="1" vertex="1">
          <mxGeometry x="1240" y="1010" width="90" height="40" as="geometry" />
        </mxCell>
        <mxCell id="tvEzzkV83GTAkukXnAIm-350" value="" style="rounded=0;whiteSpace=wrap;html=1;" parent="1" vertex="1">
          <mxGeometry x="1410" y="890" width="10" height="360" as="geometry" />
        </mxCell>
        <mxCell id="tvEzzkV83GTAkukXnAIm-351" value="" style="endArrow=none;html=1;rounded=0;" parent="1" edge="1">
          <mxGeometry width="50" height="50" relative="1" as="geometry">
            <mxPoint x="1210" y="850" as="sourcePoint" />
            <mxPoint x="2170" y="850" as="targetPoint" />
          </mxGeometry>
        </mxCell>
        <mxCell id="tvEzzkV83GTAkukXnAIm-352" style="edgeStyle=orthogonalEdgeStyle;rounded=0;orthogonalLoop=1;jettySize=auto;html=1;entryX=0.5;entryY=0;entryDx=0;entryDy=0;dashed=1;endArrow=none;endFill=0;" parent="1" edge="1">
          <mxGeometry relative="1" as="geometry">
            <mxPoint x="1614.67" y="450" as="sourcePoint" />
            <mxPoint x="1614.8400000000001" y="530" as="targetPoint" />
          </mxGeometry>
        </mxCell>
        <mxCell id="tvEzzkV83GTAkukXnAIm-353" style="edgeStyle=orthogonalEdgeStyle;rounded=0;orthogonalLoop=1;jettySize=auto;html=1;entryX=0.5;entryY=0;entryDx=0;entryDy=0;dashed=1;endArrow=none;endFill=0;" parent="1" edge="1">
          <mxGeometry relative="1" as="geometry">
            <mxPoint x="1814.6799999999998" y="450" as="sourcePoint" />
            <mxPoint x="1814.85" y="530" as="targetPoint" />
          </mxGeometry>
        </mxCell>
        <mxCell id="tvEzzkV83GTAkukXnAIm-354" style="edgeStyle=orthogonalEdgeStyle;rounded=0;orthogonalLoop=1;jettySize=auto;html=1;entryX=0.5;entryY=0;entryDx=0;entryDy=0;dashed=1;endArrow=none;endFill=0;" parent="1" target="tvEzzkV83GTAkukXnAIm-337" edge="1">
          <mxGeometry relative="1" as="geometry">
            <mxPoint x="2014.63" y="440" as="sourcePoint" />
            <mxPoint x="2014.8000000000002" y="520" as="targetPoint" />
          </mxGeometry>
        </mxCell>
        <mxCell id="tvEzzkV83GTAkukXnAIm-355" style="edgeStyle=orthogonalEdgeStyle;rounded=0;orthogonalLoop=1;jettySize=auto;html=1;dashed=1;endArrow=none;endFill=0;exitX=0.5;exitY=1;exitDx=0;exitDy=0;entryX=0.5;entryY=0;entryDx=0;entryDy=0;" parent="1" source="tvEzzkV83GTAkukXnAIm-325" target="tvEzzkV83GTAkukXnAIm-336" edge="1">
          <mxGeometry relative="1" as="geometry">
            <mxPoint x="1880" y="480" as="sourcePoint" />
            <mxPoint x="1880" y="550" as="targetPoint" />
          </mxGeometry>
        </mxCell>
        <mxCell id="tvEzzkV83GTAkukXnAIm-356" style="edgeStyle=orthogonalEdgeStyle;rounded=0;orthogonalLoop=1;jettySize=auto;html=1;entryX=0.5;entryY=0;entryDx=0;entryDy=0;dashed=1;endArrow=none;endFill=0;" parent="1" edge="1">
          <mxGeometry relative="1" as="geometry">
            <mxPoint x="1414.67" y="810" as="sourcePoint" />
            <mxPoint x="1414.8400000000001" y="890" as="targetPoint" />
          </mxGeometry>
        </mxCell>
        <mxCell id="tvEzzkV83GTAkukXnAIm-357" value="Нажатие кнопки &quot;Сообщить о проблеме&quot;" style="text;html=1;strokeColor=none;fillColor=none;align=center;verticalAlign=middle;whiteSpace=wrap;rounded=0;" parent="1" vertex="1">
          <mxGeometry x="1439.5" y="880" width="151" height="30" as="geometry" />
        </mxCell>
        <mxCell id="tvEzzkV83GTAkukXnAIm-358" style="edgeStyle=orthogonalEdgeStyle;rounded=0;orthogonalLoop=1;jettySize=auto;html=1;entryX=-0.007;entryY=0.1;entryDx=0;entryDy=0;exitX=1;exitY=0.1;exitDx=0;exitDy=0;exitPerimeter=0;entryPerimeter=0;" parent="1" edge="1">
          <mxGeometry relative="1" as="geometry">
            <mxPoint x="1421" y="910" as="sourcePoint" />
            <mxPoint x="1611" y="910" as="targetPoint" />
          </mxGeometry>
        </mxCell>
        <mxCell id="tvEzzkV83GTAkukXnAIm-359" value="" style="rounded=0;whiteSpace=wrap;html=1;" parent="1" vertex="1">
          <mxGeometry x="1610" y="890" width="10" height="120" as="geometry" />
        </mxCell>
        <mxCell id="tvEzzkV83GTAkukXnAIm-360" value="Запрос для открытие фомы" style="text;html=1;strokeColor=none;fillColor=none;align=center;verticalAlign=middle;whiteSpace=wrap;rounded=0;" parent="1" vertex="1">
          <mxGeometry x="1650" y="890" width="130" height="30" as="geometry" />
        </mxCell>
        <mxCell id="tvEzzkV83GTAkukXnAIm-361" value="" style="rounded=0;whiteSpace=wrap;html=1;" parent="1" vertex="1">
          <mxGeometry x="1810" y="890" width="10" height="120" as="geometry" />
        </mxCell>
        <mxCell id="tvEzzkV83GTAkukXnAIm-362" value="Открытие формы" style="text;html=1;strokeColor=none;fillColor=none;align=center;verticalAlign=middle;whiteSpace=wrap;rounded=0;" parent="1" vertex="1">
          <mxGeometry x="1650" y="950" width="130" height="30" as="geometry" />
        </mxCell>
        <mxCell id="tvEzzkV83GTAkukXnAIm-363" style="edgeStyle=orthogonalEdgeStyle;rounded=0;orthogonalLoop=1;jettySize=auto;html=1;exitX=0;exitY=0.75;exitDx=0;exitDy=0;entryX=0.992;entryY=0.899;entryDx=0;entryDy=0;entryPerimeter=0;dashed=1;endArrow=open;endFill=0;" parent="1" edge="1">
          <mxGeometry relative="1" as="geometry">
            <mxPoint x="1810" y="980" as="sourcePoint" />
            <mxPoint x="1620" y="980" as="targetPoint" />
          </mxGeometry>
        </mxCell>
        <mxCell id="tvEzzkV83GTAkukXnAIm-364" style="edgeStyle=orthogonalEdgeStyle;rounded=0;orthogonalLoop=1;jettySize=auto;html=1;exitX=0;exitY=0.75;exitDx=0;exitDy=0;entryX=0.992;entryY=0.899;entryDx=0;entryDy=0;entryPerimeter=0;dashed=1;endArrow=open;endFill=0;" parent="1" edge="1">
          <mxGeometry relative="1" as="geometry">
            <mxPoint x="1611" y="980" as="sourcePoint" />
            <mxPoint x="1421" y="980" as="targetPoint" />
          </mxGeometry>
        </mxCell>
        <mxCell id="tvEzzkV83GTAkukXnAIm-365" value="Отображение формы" style="text;html=1;strokeColor=none;fillColor=none;align=center;verticalAlign=middle;whiteSpace=wrap;rounded=0;" parent="1" vertex="1">
          <mxGeometry x="1451" y="950" width="130" height="30" as="geometry" />
        </mxCell>
        <mxCell id="tvEzzkV83GTAkukXnAIm-366" style="edgeStyle=orthogonalEdgeStyle;rounded=0;orthogonalLoop=1;jettySize=auto;html=1;entryX=-0.007;entryY=0.1;entryDx=0;entryDy=0;exitX=1;exitY=0.1;exitDx=0;exitDy=0;exitPerimeter=0;entryPerimeter=0;" parent="1" edge="1">
          <mxGeometry relative="1" as="geometry">
            <mxPoint x="1420" y="1040" as="sourcePoint" />
            <mxPoint x="1610" y="1040" as="targetPoint" />
          </mxGeometry>
        </mxCell>
        <mxCell id="tvEzzkV83GTAkukXnAIm-367" value="Заполнение полей" style="text;html=1;strokeColor=none;fillColor=none;align=center;verticalAlign=middle;whiteSpace=wrap;rounded=0;" parent="1" vertex="1">
          <mxGeometry x="1450" y="1010" width="130" height="30" as="geometry" />
        </mxCell>
        <mxCell id="tvEzzkV83GTAkukXnAIm-368" value="" style="rounded=0;whiteSpace=wrap;html=1;" parent="1" vertex="1">
          <mxGeometry x="1610" y="1030" width="10" height="220" as="geometry" />
        </mxCell>
        <mxCell id="tvEzzkV83GTAkukXnAIm-369" style="edgeStyle=orthogonalEdgeStyle;rounded=0;orthogonalLoop=1;jettySize=auto;html=1;entryX=-0.007;entryY=0.1;entryDx=0;entryDy=0;exitX=1;exitY=0.1;exitDx=0;exitDy=0;exitPerimeter=0;entryPerimeter=0;" parent="1" edge="1">
          <mxGeometry relative="1" as="geometry">
            <mxPoint x="1620" y="1061" as="sourcePoint" />
            <mxPoint x="1810" y="1061" as="targetPoint" />
          </mxGeometry>
        </mxCell>
        <mxCell id="tvEzzkV83GTAkukXnAIm-370" value="Передача данных" style="text;html=1;strokeColor=none;fillColor=none;align=center;verticalAlign=middle;whiteSpace=wrap;rounded=0;" parent="1" vertex="1">
          <mxGeometry x="1650" y="1031" width="130" height="30" as="geometry" />
        </mxCell>
        <mxCell id="tvEzzkV83GTAkukXnAIm-371" value="" style="rounded=0;whiteSpace=wrap;html=1;" parent="1" vertex="1">
          <mxGeometry x="1810" y="1031" width="10" height="219" as="geometry" />
        </mxCell>
        <mxCell id="tvEzzkV83GTAkukXnAIm-372" value="Поверка корректности введённых данных" style="text;html=1;strokeColor=none;fillColor=none;align=center;verticalAlign=middle;whiteSpace=wrap;rounded=0;" parent="1" vertex="1">
          <mxGeometry x="1840" y="1040" width="130" height="30" as="geometry" />
        </mxCell>
        <mxCell id="tvEzzkV83GTAkukXnAIm-373" style="edgeStyle=orthogonalEdgeStyle;rounded=0;orthogonalLoop=1;jettySize=auto;html=1;exitX=1;exitY=0.1;exitDx=0;exitDy=0;exitPerimeter=0;" parent="1" edge="1">
          <mxGeometry relative="1" as="geometry">
            <mxPoint x="1820" y="1069.85" as="sourcePoint" />
            <mxPoint x="1820" y="1090.2200000000003" as="targetPoint" />
            <Array as="points">
              <mxPoint x="1910" y="1070.2200000000003" />
              <mxPoint x="1910" y="1090.2200000000003" />
              <mxPoint x="1820" y="1090.2200000000003" />
            </Array>
          </mxGeometry>
        </mxCell>
        <mxCell id="tvEzzkV83GTAkukXnAIm-374" value="" style="rounded=0;whiteSpace=wrap;html=1;" parent="1" vertex="1">
          <mxGeometry x="2010" y="1090" width="10" height="160" as="geometry" />
        </mxCell>
        <mxCell id="tvEzzkV83GTAkukXnAIm-375" style="edgeStyle=orthogonalEdgeStyle;rounded=0;orthogonalLoop=1;jettySize=auto;html=1;entryX=-0.007;entryY=0.1;entryDx=0;entryDy=0;exitX=1;exitY=0.1;exitDx=0;exitDy=0;exitPerimeter=0;entryPerimeter=0;" parent="1" edge="1">
          <mxGeometry relative="1" as="geometry">
            <mxPoint x="1820" y="1130.2200000000003" as="sourcePoint" />
            <mxPoint x="2010" y="1130.2200000000003" as="targetPoint" />
          </mxGeometry>
        </mxCell>
        <mxCell id="tvEzzkV83GTAkukXnAIm-376" value="Запрос на добавление" style="text;html=1;strokeColor=none;fillColor=none;align=center;verticalAlign=middle;whiteSpace=wrap;rounded=0;" parent="1" vertex="1">
          <mxGeometry x="1850" y="1100.2200000000003" width="130" height="30" as="geometry" />
        </mxCell>
        <mxCell id="tvEzzkV83GTAkukXnAIm-377" value="Результат" style="text;html=1;strokeColor=none;fillColor=none;align=center;verticalAlign=middle;whiteSpace=wrap;rounded=0;" parent="1" vertex="1">
          <mxGeometry x="1850" y="1210.17" width="130" height="30" as="geometry" />
        </mxCell>
        <mxCell id="tvEzzkV83GTAkukXnAIm-378" style="edgeStyle=orthogonalEdgeStyle;rounded=0;orthogonalLoop=1;jettySize=auto;html=1;exitX=0;exitY=0.75;exitDx=0;exitDy=0;entryX=0.992;entryY=0.899;entryDx=0;entryDy=0;entryPerimeter=0;dashed=1;endArrow=open;endFill=0;" parent="1" edge="1">
          <mxGeometry relative="1" as="geometry">
            <mxPoint x="2010" y="1240.17" as="sourcePoint" />
            <mxPoint x="1820" y="1240.17" as="targetPoint" />
          </mxGeometry>
        </mxCell>
        <mxCell id="tvEzzkV83GTAkukXnAIm-379" value="Сообщение об успешном добавлении" style="text;html=1;strokeColor=none;fillColor=none;align=center;verticalAlign=middle;whiteSpace=wrap;rounded=0;" parent="1" vertex="1">
          <mxGeometry x="1650" y="1209.17" width="130" height="30" as="geometry" />
        </mxCell>
        <mxCell id="tvEzzkV83GTAkukXnAIm-380" style="edgeStyle=orthogonalEdgeStyle;rounded=0;orthogonalLoop=1;jettySize=auto;html=1;exitX=0;exitY=0.75;exitDx=0;exitDy=0;entryX=0.992;entryY=0.899;entryDx=0;entryDy=0;entryPerimeter=0;dashed=1;endArrow=open;endFill=0;" parent="1" edge="1">
          <mxGeometry relative="1" as="geometry">
            <mxPoint x="1810" y="1239.17" as="sourcePoint" />
            <mxPoint x="1620" y="1239.17" as="targetPoint" />
          </mxGeometry>
        </mxCell>
        <mxCell id="tvEzzkV83GTAkukXnAIm-381" style="edgeStyle=orthogonalEdgeStyle;rounded=0;orthogonalLoop=1;jettySize=auto;html=1;dashed=1;endArrow=none;endFill=0;exitX=0.5;exitY=1;exitDx=0;exitDy=0;entryX=0.5;entryY=0;entryDx=0;entryDy=0;" parent="1" target="tvEzzkV83GTAkukXnAIm-371" edge="1">
          <mxGeometry relative="1" as="geometry">
            <mxPoint x="1815" y="1011" as="sourcePoint" />
            <mxPoint x="1880" y="911" as="targetPoint" />
          </mxGeometry>
        </mxCell>
        <mxCell id="tvEzzkV83GTAkukXnAIm-382" style="edgeStyle=orthogonalEdgeStyle;rounded=0;orthogonalLoop=1;jettySize=auto;html=1;dashed=1;endArrow=none;endFill=0;exitX=0.5;exitY=1;exitDx=0;exitDy=0;entryX=0.5;entryY=0;entryDx=0;entryDy=0;" parent="1" edge="1">
          <mxGeometry relative="1" as="geometry">
            <mxPoint x="1614.9" y="1010" as="sourcePoint" />
            <mxPoint x="1614.9" y="1030" as="targetPoint" />
          </mxGeometry>
        </mxCell>
        <mxCell id="tvEzzkV83GTAkukXnAIm-383" value="" style="rounded=0;whiteSpace=wrap;html=1;" parent="1" vertex="1">
          <mxGeometry x="2014" y="1145" width="16" height="60" as="geometry" />
        </mxCell>
        <mxCell id="tvEzzkV83GTAkukXnAIm-384" style="edgeStyle=orthogonalEdgeStyle;rounded=0;orthogonalLoop=1;jettySize=auto;html=1;exitX=1;exitY=0.1;exitDx=0;exitDy=0;exitPerimeter=0;" parent="1" edge="1">
          <mxGeometry relative="1" as="geometry">
            <mxPoint x="2030" y="1159.85" as="sourcePoint" />
            <mxPoint x="2030" y="1180.2200000000003" as="targetPoint" />
            <Array as="points">
              <mxPoint x="2120" y="1160.2200000000003" />
              <mxPoint x="2120" y="1180.2200000000003" />
              <mxPoint x="2030" y="1180.2200000000003" />
            </Array>
          </mxGeometry>
        </mxCell>
        <mxCell id="tvEzzkV83GTAkukXnAIm-385" value="Сохранение в БД" style="text;html=1;strokeColor=none;fillColor=none;align=center;verticalAlign=middle;whiteSpace=wrap;rounded=0;" parent="1" vertex="1">
          <mxGeometry x="2050" y="1130" width="130" height="30" as="geometry" />
        </mxCell>
        <mxCell id="tvEzzkV83GTAkukXnAIm-386" style="edgeStyle=orthogonalEdgeStyle;rounded=0;orthogonalLoop=1;jettySize=auto;html=1;exitX=0;exitY=0.75;exitDx=0;exitDy=0;entryX=0.992;entryY=0.899;entryDx=0;entryDy=0;entryPerimeter=0;dashed=1;endArrow=open;endFill=0;" parent="1" edge="1">
          <mxGeometry relative="1" as="geometry">
            <mxPoint x="1610" y="1239.17" as="sourcePoint" />
            <mxPoint x="1420" y="1239.17" as="targetPoint" />
          </mxGeometry>
        </mxCell>
        <mxCell id="tvEzzkV83GTAkukXnAIm-387" value="Отображение сообщения" style="text;html=1;strokeColor=none;fillColor=none;align=center;verticalAlign=middle;whiteSpace=wrap;rounded=0;" parent="1" vertex="1">
          <mxGeometry x="1450" y="1209.17" width="130" height="30" as="geometry" />
        </mxCell>
        <mxCell id="tvEzzkV83GTAkukXnAIm-388" style="edgeStyle=orthogonalEdgeStyle;rounded=0;orthogonalLoop=1;jettySize=auto;html=1;entryX=-0.007;entryY=0.1;entryDx=0;entryDy=0;exitX=1;exitY=0.1;exitDx=0;exitDy=0;exitPerimeter=0;entryPerimeter=0;" parent="1" edge="1">
          <mxGeometry relative="1" as="geometry">
            <mxPoint x="1620" y="920" as="sourcePoint" />
            <mxPoint x="1810" y="920" as="targetPoint" />
          </mxGeometry>
        </mxCell>
        <mxCell id="tvEzzkV83GTAkukXnAIm-389" value="" style="rounded=0;whiteSpace=wrap;html=1;" parent="1" vertex="1">
          <mxGeometry x="2010" y="530" width="10" height="120" as="geometry" />
        </mxCell>
        <mxCell id="tvEzzkV83GTAkukXnAIm-390" value="" style="rounded=0;whiteSpace=wrap;html=1;" parent="1" vertex="1">
          <mxGeometry x="2014" y="570" width="16" height="60" as="geometry" />
        </mxCell>
        <mxCell id="tvEzzkV83GTAkukXnAIm-391" style="edgeStyle=orthogonalEdgeStyle;rounded=0;orthogonalLoop=1;jettySize=auto;html=1;exitX=1;exitY=0.1;exitDx=0;exitDy=0;exitPerimeter=0;" parent="1" edge="1">
          <mxGeometry relative="1" as="geometry">
            <mxPoint x="2030" y="579.8499999999999" as="sourcePoint" />
            <mxPoint x="2030" y="600.22" as="targetPoint" />
            <Array as="points">
              <mxPoint x="2120" y="580.22" />
              <mxPoint x="2120" y="600.22" />
              <mxPoint x="2030" y="600.22" />
            </Array>
          </mxGeometry>
        </mxCell>
        <mxCell id="tvEzzkV83GTAkukXnAIm-392" value="Выборка из БД" style="text;html=1;strokeColor=none;fillColor=none;align=center;verticalAlign=middle;whiteSpace=wrap;rounded=0;" parent="1" vertex="1">
          <mxGeometry x="2050" y="550" width="130" height="30" as="geometry" />
        </mxCell>
        <mxCell id="tvEzzkV83GTAkukXnAIm-393" style="edgeStyle=orthogonalEdgeStyle;rounded=0;orthogonalLoop=1;jettySize=auto;html=1;entryX=-0.007;entryY=0.1;entryDx=0;entryDy=0;exitX=1;exitY=0.1;exitDx=0;exitDy=0;exitPerimeter=0;entryPerimeter=0;" parent="1" edge="1">
          <mxGeometry relative="1" as="geometry">
            <mxPoint x="1820" y="569.05" as="sourcePoint" />
            <mxPoint x="2010" y="569.05" as="targetPoint" />
          </mxGeometry>
        </mxCell>
        <mxCell id="tvEzzkV83GTAkukXnAIm-394" value="Поиск заказов по кладовщику" style="text;html=1;strokeColor=none;fillColor=none;align=center;verticalAlign=middle;whiteSpace=wrap;rounded=0;" parent="1" vertex="1">
          <mxGeometry x="1850" y="539.05" width="130" height="30" as="geometry" />
        </mxCell>
        <mxCell id="tvEzzkV83GTAkukXnAIm-395" value="Найденное совпадение" style="text;html=1;strokeColor=none;fillColor=none;align=center;verticalAlign=middle;whiteSpace=wrap;rounded=0;" parent="1" vertex="1">
          <mxGeometry x="1848" y="590" width="130" height="30" as="geometry" />
        </mxCell>
        <mxCell id="tvEzzkV83GTAkukXnAIm-396" style="edgeStyle=orthogonalEdgeStyle;rounded=0;orthogonalLoop=1;jettySize=auto;html=1;entryX=0.995;entryY=0.851;entryDx=0;entryDy=0;entryPerimeter=0;dashed=1;endArrow=open;endFill=0;exitX=0;exitY=0.75;exitDx=0;exitDy=0;" parent="1" source="tvEzzkV83GTAkukXnAIm-389" edge="1">
          <mxGeometry relative="1" as="geometry">
            <mxPoint x="1990" y="630" as="sourcePoint" />
            <mxPoint x="1818" y="620" as="targetPoint" />
            <Array as="points" />
          </mxGeometry>
        </mxCell>
        <mxCell id="tvEzzkV83GTAkukXnAIm-397" value="" style="rounded=0;whiteSpace=wrap;html=1;" parent="1" vertex="1">
          <mxGeometry x="1611" y="670" width="10" height="140" as="geometry" />
        </mxCell>
        <mxCell id="tvEzzkV83GTAkukXnAIm-398" style="edgeStyle=orthogonalEdgeStyle;rounded=0;orthogonalLoop=1;jettySize=auto;html=1;entryX=0.5;entryY=0;entryDx=0;entryDy=0;dashed=1;endArrow=none;endFill=0;" parent="1" edge="1">
          <mxGeometry relative="1" as="geometry">
            <mxPoint x="1615.6899999999996" y="810" as="sourcePoint" />
            <mxPoint x="1615.8599999999997" y="890" as="targetPoint" />
          </mxGeometry>
        </mxCell>
        <mxCell id="tvEzzkV83GTAkukXnAIm-399" style="edgeStyle=orthogonalEdgeStyle;rounded=0;orthogonalLoop=1;jettySize=auto;html=1;entryX=0.5;entryY=0;entryDx=0;entryDy=0;dashed=1;endArrow=none;endFill=0;" parent="1" edge="1">
          <mxGeometry relative="1" as="geometry">
            <mxPoint x="1814.6499999999996" y="810" as="sourcePoint" />
            <mxPoint x="1814.8199999999997" y="890" as="targetPoint" />
          </mxGeometry>
        </mxCell>
        <mxCell id="tvEzzkV83GTAkukXnAIm-400" style="edgeStyle=orthogonalEdgeStyle;rounded=0;orthogonalLoop=1;jettySize=auto;html=1;entryX=0.5;entryY=0;entryDx=0;entryDy=0;dashed=1;endArrow=none;endFill=0;" parent="1" target="tvEzzkV83GTAkukXnAIm-374" edge="1">
          <mxGeometry relative="1" as="geometry">
            <mxPoint x="2014.6799999999998" y="810" as="sourcePoint" />
            <mxPoint x="2014.85" y="890" as="targetPoint" />
          </mxGeometry>
        </mxCell>
      </root>
    </mxGraphModel>
  </diagram>
</mxfile>
